<?xml version="1.0" encoding="UTF-8"?>
<svg id="Layer_2" data-name="Layer 2" xmlns="http://www.w3.org/2000/svg" viewBox="0 0 615.31 172.36">
  <g id="Layer_1-2" data-name="Layer 1">
    <rect width="615.31" height="172.36" style="fill: none;"/>
    <g>
      <line x1="270.79" y1="28.66" x2="270.79" y2="144.48" style="fill: none; stroke: #fff; stroke-miterlimit: 10; stroke-width: .23px;"/>
      <path d="M557.19,57.91l-19.24,28.18,20.04,29.14h-11.49l-14.61-21.55-14.69,21.55h-11.18l20.04-29.14-19.32-28.18h11.5l13.89,20.52,13.89-20.52h11.18ZM463.17,57.91h38.8v8.94h-28.74v14.37h24.19v8.94h-24.19v16.13h28.74v8.94h-38.8v-57.32ZM419.36,115.23v-57.32h10.22v48.38h26.98v8.94h-37.2ZM383.35,115.23h-10.06v-57.32h38.24v8.94h-28.18v15.57h23.63v8.94h-23.63v23.87Z" style="fill: #fff;"/>
      <rect x="314.2" y="98.03" width="4.85" height="17.2" style="fill: #fff;"/>
      <rect x="301.86" y="98.03" width="11.02" height="17.2" style="fill: #fff;"/>
      <rect x="301.86" y="57.91" width="23.37" height="17.2" style="fill: #fff;"/>
      <rect x="326.55" y="57.91" width="4.85" height="17.2" style="fill: #fff;"/>
      <rect x="332.72" y="57.91" width="4.85" height="17.2" style="fill: #fff;"/>
      <rect x="338.9" y="57.91" width="4.85" height="17.2" style="fill: #fff;"/>
      <rect x="345.07" y="57.91" width="4.85" height="17.2" style="fill: #fff;"/>
      <rect x="351.24" y="57.91" width="4.85" height="17.2" style="fill: #fff;"/>
      <rect x="301.86" y="77.97" width="4.85" height="17.2" style="fill: #fff;"/>
      <rect x="308.03" y="77.97" width="4.85" height="17.2" style="fill: #fff;"/>
      <rect x="314.2" y="77.97" width="4.85" height="17.2" style="fill: #fff;"/>
      <rect x="320.38" y="77.97" width="17.2" height="17.2" style="fill: #fff;"/>
      <polygon points="75.7 93.16 64.71 93.16 64.71 98.44 74.84 98.44 74.84 103.57 64.71 103.57 64.71 115.43 58.18 115.43 58.18 88.03 75.7 88.03 75.7 93.16" style="fill: #fff;"/>
      <path d="M89.12,113.23c-.41.37-.79.7-1.11,1-.33.29-.78.58-1.33.88-.55.27-1.08.48-1.6.62-.51.13-1.23.21-2.17.21-1.73,0-3.16-.61-4.3-1.84-1.14-1.23-1.72-2.78-1.72-4.65,0-1.54.29-2.78.87-3.72.58-.95,1.41-1.69,2.5-2.26,1.11-.56,2.42-.96,3.95-1.18,1.54-.22,3.18-.39,4.94-.51v-.11c0-1.15-.4-1.95-1.19-2.39-.79-.45-1.99-.66-3.57-.66-.72,0-1.56.14-2.52.42-.96.28-1.9.65-2.82,1.1h-.52v-4.97c.61-.18,1.6-.39,2.94-.66,1.36-.25,2.72-.37,4.1-.37,3.38,0,5.83.59,7.38,1.78,1.53,1.18,2.32,2.99,2.32,5.43v14.07h-6.16v-2.2ZM89.12,109.99v-4.31c-1.03.1-1.86.2-2.5.27-.64.09-1.27.24-1.88.48-.54.19-.95.49-1.25.89-.3.4-.44.94-.44,1.6,0,.98.24,1.64.74,2,.5.36,1.23.55,2.2.55.52,0,1.08-.13,1.64-.4.55-.25,1.06-.61,1.5-1.09" style="fill: #fff;"/>
      <path d="M112.65,100.93h-.51c-.23-.09-.56-.15-1.01-.2-.44-.04-.92-.06-1.45-.06-.63,0-1.31.09-2,.28-.71.2-1.38.44-2.04.71v13.77h-6.15v-20.69h6.15v3.03c.27-.27.67-.61,1.15-1.03.49-.4.94-.73,1.34-.99.45-.27.95-.51,1.54-.72.59-.2,1.13-.3,1.66-.3.19,0,.42.01.65.02.24,0,.46.03.67.05v6.12Z" style="fill: #fff;"/>
      <path d="M138.17,115.43v-10.32c0-1.03,0-1.88-.05-2.58-.04-.71-.14-1.27-.31-1.72-.17-.44-.46-.75-.82-.96-.37-.2-.89-.3-1.56-.3-.47,0-.93.1-1.39.31-.45.22-.96.53-1.49.92v14.65h-6.14v-10.32c0-1.01-.03-1.86-.07-2.57-.04-.71-.16-1.28-.33-1.73-.17-.44-.45-.75-.81-.96-.38-.2-.88-.3-1.54-.3-.51,0-1,.12-1.48.36-.48.24-.95.54-1.4.87v14.65h-6.15v-20.69h6.15v2.33c1.01-.91,1.95-1.6,2.84-2.09.89-.5,1.89-.76,3-.76,1.19,0,2.26.29,3.17.89.91.6,1.6,1.5,2.09,2.69,1.18-1.16,2.29-2.04,3.32-2.67,1.05-.61,2.11-.91,3.19-.91.9,0,1.73.15,2.45.45.72.32,1.34.77,1.83,1.38.55.67.96,1.45,1.24,2.37.28.9.41,2.1.41,3.57v13.44h-6.15Z" style="fill: #fff;"/>
      <rect x="148.58" y="86.77" width="6.15" height="28.66" style="fill: #fff;"/>
      <path d="M169.83,113.23c-.41.37-.79.7-1.12,1-.33.29-.78.58-1.34.88-.55.27-1.08.48-1.59.62-.51.13-1.24.21-2.16.21-1.73,0-3.17-.61-4.3-1.84-1.14-1.23-1.71-2.78-1.71-4.65,0-1.54.28-2.78.86-3.72.58-.95,1.42-1.69,2.51-2.26,1.09-.56,2.42-.96,3.93-1.18,1.54-.22,3.19-.39,4.96-.51v-.11c0-1.15-.41-1.95-1.2-2.39-.78-.45-1.98-.66-3.56-.66-.73,0-1.56.14-2.52.42-.96.28-1.91.65-2.82,1.1h-.51v-4.97c.61-.18,1.59-.39,2.94-.66,1.34-.25,2.71-.37,4.09-.37,3.38,0,5.84.59,7.38,1.78,1.55,1.18,2.32,2.99,2.32,5.43v14.07h-6.15v-2.2ZM169.83,109.99v-4.31c-1.04.1-1.87.2-2.52.27-.64.09-1.26.24-1.87.48-.55.19-.96.49-1.26.89-.28.4-.43.94-.43,1.6,0,.98.25,1.64.74,2,.49.36,1.23.55,2.19.55.53,0,1.08-.13,1.64-.4.56-.25,1.05-.61,1.52-1.09" style="fill: #fff;"/>
      <path d="M198.64,115.43h-6.14v-10.25c0-.83-.04-1.67-.1-2.49-.07-.83-.19-1.44-.37-1.83-.21-.46-.5-.8-.91-1-.4-.2-.93-.3-1.6-.3-.5,0-1.01.09-1.53.29-.52.19-1.06.5-1.65.94v14.65h-6.16v-20.69h6.16v2.33c1.01-.91,1.99-1.6,2.94-2.09.95-.5,2-.76,3.15-.76,2.02,0,3.55.66,4.61,1.98,1.07,1.34,1.6,3.26,1.6,5.79v13.44Z" style="fill: #fff;"/>
      <path d="M220.67,115.43h-6.15v-2.15c-.4.34-.84.71-1.36,1.11-.5.39-.94.69-1.34.88-.48.26-.97.47-1.45.61-.48.14-1.05.21-1.72.21-2.25,0-4.02-.98-5.33-2.93-1.31-1.96-1.96-4.58-1.96-7.84,0-1.81.23-3.38.67-4.71.44-1.33,1.06-2.48,1.84-3.47.72-.9,1.58-1.6,2.6-2.14,1.02-.52,2.08-.77,3.23-.77,1.02,0,1.88.11,2.53.34.65.22,1.42.57,2.29,1.05v-8.84h6.15v28.66ZM214.52,109.83v-10.25c-.3-.17-.69-.29-1.18-.4-.5-.11-.91-.16-1.27-.16-1.46,0-2.57.55-3.31,1.64-.74,1.09-1.11,2.62-1.11,4.57,0,2.07.3,3.56.89,4.47.59.92,1.54,1.38,2.86,1.38.54,0,1.08-.11,1.62-.34.56-.22,1.06-.52,1.51-.9" style="fill: #fff;"/>
      <path d="M231.01,115.95c-1.44,0-2.8-.16-4.08-.49-1.3-.34-2.35-.73-3.21-1.17v-5.46h.51c.28.23.62.49.99.77.37.27.89.56,1.54.86.57.27,1.21.51,1.92.7.71.2,1.48.3,2.32.3s1.61-.13,2.26-.4c.65-.27.99-.7.99-1.28,0-.47-.17-.83-.46-1.08-.31-.25-.89-.48-1.76-.7-.46-.12-1.05-.25-1.76-.39-.71-.16-1.34-.3-1.87-.49-1.54-.5-2.69-1.25-3.46-2.23-.77-.99-1.15-2.28-1.15-3.87,0-.92.2-1.79.6-2.6.4-.82,1-1.54,1.78-2.17.78-.63,1.74-1.12,2.89-1.49,1.14-.36,2.44-.54,3.88-.54s2.65.14,3.8.42c1.15.29,2.13.65,2.92,1.05v5.24h-.48c-.21-.17-.54-.4-.99-.68-.46-.28-.89-.53-1.33-.74-.51-.24-1.06-.44-1.7-.59-.64-.16-1.28-.24-1.93-.24-.88,0-1.64.15-2.24.45-.61.32-.91.72-.91,1.22,0,.46.15.84.46,1.11.3.26.96.52,1.97.79.52.13,1.13.26,1.79.39.69.13,1.34.3,1.96.52,1.4.47,2.47,1.18,3.19,2.1.73.92,1.09,2.14,1.09,3.67,0,.97-.21,1.89-.65,2.76-.43.88-1.05,1.61-1.82,2.22-.85.64-1.84,1.15-2.97,1.5-1.13.35-2.5.53-4.08.53" style="fill: #fff;"/>
      <path d="M58.16,68.16s32.79-6.66,63.96-6.66c45.86,0,54.54,4.49,87.69,7.12,14.22,1.21,26.37,1.74,27.09,1.81,1.38.12,3.63.15,3.63.15v-12.67H58.16v10.25Z" style="fill: #f89822;"/>
      <path d="M58.16,71.47v7.37h182.37v-7.05s-22.99-1.09-36.07-2.16c-23.71-1.96-37.6-5.25-57.84-5.71-10.24-.22-19.34-.84-44.4,1.13-4.67.37-22.09,2.43-30.27,4.02-2.99.59-13.79,2.4-13.79,2.4" style="fill: #fff;"/>
    </g>
    <rect width="615.31" height="172.36" style="fill: none;"/>
  </g>
</svg>